# xmcd CD database file
#
# Track frame offsets:
#	150
#	16511
#	40256
#	59559
#	75584
#	97372
#	113912
#	132972
#	146347
#	159281
#	178021
#	196482
#	214002
#	228604
#	244707
#	257288
#	279743
#	295201
#	311800
#	326456
#
# Disc length: 4502 seconds
#
# Revision: 0
# Processed by: cddbd v1.5.2PL0 Copyright (c) Steve Scherf et al.
# Submitted via: Feurio! 1.68 - http://www.feurio.com
#
DISCID=1f119414
DTITLE=Z. Z. Hill - Z. Z. Hill's Greatest Hits and More
DYEAR=1900
DGENRE=Blues
TTITLE0=Cheatin' In The Next Room
TTITLE1=Down Home Blues
TTITLE2=Please Don't Let Our Good Thing End
TTITLE3=Right Arm For Your Love
TTITLE4=Open House At My House
TTITLE5=Someone Else Is Steppin' In
TTITLE6=Get A Little Give A Little
TTITLE7=Shade Tree Mechanic
TTITLE8=Three Into Two Won't Go
TTITLE9=Stop You From Giving Me The Blues
TTITLE10=Friday Is My Day
TTITLE11=Please Don't Make Me Do Something Bad To You
TTITLE12=Get You Some Business
TTITLE13=I'm A Blues Man
TTITLE14=You're Ruining My Bad Reputation
TTITLE15=Everybody Knows About My Good Thing
TTITLE16=Love Is So Good When You're Stealin' It
TTITLE17=Second Chance
TTITLE18=It' Ain't No Use
TTITLE19=Faithful and True
EXTD=
EXTT0=
EXTT1=
EXTT2=
EXTT3=
EXTT4=
EXTT5=
EXTT6=
EXTT7=
EXTT8=
EXTT9=
EXTT10=
EXTT11=
EXTT12=
EXTT13=
EXTT14=
EXTT15=
EXTT16=
EXTT17=
EXTT18=
EXTT19=
PLAYORDER=
